<mxfile host="app.diagrams.net" agent="Mozilla/5.0 (Windows NT 10.0; Win64; x64) AppleWebKit/537.36 (KHTML, like Gecko) Chrome/129.0.0.0 Safari/537.36" version="24.7.17">
  <diagram name="Page-1" id="0_WMhVbckr8UgukYg9j4">
    <mxGraphModel dx="2284" dy="780" grid="1" gridSize="10" guides="1" tooltips="1" connect="1" arrows="1" fold="1" page="1" pageScale="1" pageWidth="850" pageHeight="1100" math="0" shadow="0">
      <root>
        <mxCell id="0" />
        <mxCell id="1" parent="0" />
        <mxCell id="dCw0XoR2P0re9Lg1B4J4-7" value="" style="edgeStyle=orthogonalEdgeStyle;rounded=0;orthogonalLoop=1;jettySize=auto;html=1;endArrow=none;endFill=0;startArrow=classic;startFill=1;" parent="1" source="dCw0XoR2P0re9Lg1B4J4-1" target="dCw0XoR2P0re9Lg1B4J4-6" edge="1">
          <mxGeometry relative="1" as="geometry" />
        </mxCell>
        <mxCell id="dCw0XoR2P0re9Lg1B4J4-1" value="tanszék" style="rounded=0;whiteSpace=wrap;html=1;fillColor=#d5e8d4;strokeColor=#82b366;" parent="1" vertex="1">
          <mxGeometry x="20" y="310" width="120" height="60" as="geometry" />
        </mxCell>
        <mxCell id="dCw0XoR2P0re9Lg1B4J4-27" value="" style="edgeStyle=orthogonalEdgeStyle;rounded=0;orthogonalLoop=1;jettySize=auto;html=1;endArrow=none;endFill=0;startArrow=classic;startFill=1;" parent="1" source="dCw0XoR2P0re9Lg1B4J4-3" target="dCw0XoR2P0re9Lg1B4J4-26" edge="1">
          <mxGeometry relative="1" as="geometry" />
        </mxCell>
        <mxCell id="dCw0XoR2P0re9Lg1B4J4-3" value="oktató" style="whiteSpace=wrap;html=1;fillColor=#d5e8d4;strokeColor=#82b366;rounded=0;" parent="1" vertex="1">
          <mxGeometry x="390" y="310" width="120" height="60" as="geometry" />
        </mxCell>
        <mxCell id="dCw0XoR2P0re9Lg1B4J4-5" value="tantárgy" style="whiteSpace=wrap;html=1;fillColor=#d5e8d4;strokeColor=#82b366;rounded=0;" parent="1" vertex="1">
          <mxGeometry x="720" y="310" width="120" height="60" as="geometry" />
        </mxCell>
        <mxCell id="dCw0XoR2P0re9Lg1B4J4-6" value="Tanév/félév" style="rhombus;whiteSpace=wrap;html=1;fillColor=#fff2cc;rounded=0;strokeColor=#d6b656;" parent="1" vertex="1">
          <mxGeometry x="220" y="295" width="90" height="90" as="geometry" />
        </mxCell>
        <mxCell id="dCw0XoR2P0re9Lg1B4J4-8" value="" style="endArrow=classic;html=1;rounded=0;exitX=1;exitY=0.5;exitDx=0;exitDy=0;entryX=0;entryY=0.5;entryDx=0;entryDy=0;" parent="1" source="dCw0XoR2P0re9Lg1B4J4-6" target="dCw0XoR2P0re9Lg1B4J4-3" edge="1">
          <mxGeometry width="50" height="50" relative="1" as="geometry">
            <mxPoint x="400" y="430" as="sourcePoint" />
            <mxPoint x="450" y="380" as="targetPoint" />
          </mxGeometry>
        </mxCell>
        <mxCell id="dCw0XoR2P0re9Lg1B4J4-9" value="&lt;u&gt;kód&lt;/u&gt;" style="ellipse;whiteSpace=wrap;html=1;fillColor=#ffe6cc;strokeColor=#d79b00;" parent="1" vertex="1">
          <mxGeometry x="-90" y="150" width="100" height="70" as="geometry" />
        </mxCell>
        <mxCell id="dCw0XoR2P0re9Lg1B4J4-10" value="név" style="ellipse;whiteSpace=wrap;html=1;fillColor=#ffe6cc;strokeColor=#d79b00;" parent="1" vertex="1">
          <mxGeometry x="30" y="150" width="100" height="70" as="geometry" />
        </mxCell>
        <mxCell id="dCw0XoR2P0re9Lg1B4J4-11" value="kar" style="ellipse;whiteSpace=wrap;html=1;fillColor=#ffe6cc;strokeColor=#d79b00;" parent="1" vertex="1">
          <mxGeometry x="160" y="150" width="100" height="70" as="geometry" />
        </mxCell>
        <mxCell id="dCw0XoR2P0re9Lg1B4J4-12" value="" style="endArrow=none;html=1;rounded=0;entryX=0.5;entryY=1;entryDx=0;entryDy=0;exitX=0.5;exitY=0;exitDx=0;exitDy=0;" parent="1" source="dCw0XoR2P0re9Lg1B4J4-1" target="dCw0XoR2P0re9Lg1B4J4-10" edge="1">
          <mxGeometry width="50" height="50" relative="1" as="geometry">
            <mxPoint x="400" y="430" as="sourcePoint" />
            <mxPoint x="450" y="380" as="targetPoint" />
          </mxGeometry>
        </mxCell>
        <mxCell id="dCw0XoR2P0re9Lg1B4J4-13" value="" style="endArrow=none;html=1;rounded=0;entryX=0.5;entryY=1;entryDx=0;entryDy=0;exitX=0.5;exitY=0;exitDx=0;exitDy=0;" parent="1" source="dCw0XoR2P0re9Lg1B4J4-1" target="dCw0XoR2P0re9Lg1B4J4-11" edge="1">
          <mxGeometry width="50" height="50" relative="1" as="geometry">
            <mxPoint x="400" y="430" as="sourcePoint" />
            <mxPoint x="450" y="380" as="targetPoint" />
          </mxGeometry>
        </mxCell>
        <mxCell id="dCw0XoR2P0re9Lg1B4J4-14" value="" style="endArrow=none;html=1;rounded=0;entryX=0.5;entryY=1;entryDx=0;entryDy=0;exitX=0.5;exitY=0;exitDx=0;exitDy=0;" parent="1" source="dCw0XoR2P0re9Lg1B4J4-1" target="dCw0XoR2P0re9Lg1B4J4-9" edge="1">
          <mxGeometry width="50" height="50" relative="1" as="geometry">
            <mxPoint x="400" y="430" as="sourcePoint" />
            <mxPoint x="450" y="380" as="targetPoint" />
          </mxGeometry>
        </mxCell>
        <mxCell id="dCw0XoR2P0re9Lg1B4J4-15" value="név" style="ellipse;whiteSpace=wrap;html=1;fillColor=#ffe6cc;strokeColor=#d79b00;" parent="1" vertex="1">
          <mxGeometry x="320" y="430" width="100" height="70" as="geometry" />
        </mxCell>
        <mxCell id="dCw0XoR2P0re9Lg1B4J4-16" value="&lt;u&gt;neptunkód&lt;/u&gt;" style="ellipse;whiteSpace=wrap;html=1;fillColor=#ffe6cc;strokeColor=#d79b00;" parent="1" vertex="1">
          <mxGeometry x="400" y="180" width="100" height="70" as="geometry" />
        </mxCell>
        <mxCell id="dCw0XoR2P0re9Lg1B4J4-17" value="beosztás" style="ellipse;whiteSpace=wrap;html=1;fillColor=#ffe6cc;strokeColor=#d79b00;" parent="1" vertex="1">
          <mxGeometry x="480" y="430" width="100" height="70" as="geometry" />
        </mxCell>
        <mxCell id="dCw0XoR2P0re9Lg1B4J4-22" value="" style="endArrow=none;html=1;rounded=0;entryX=0.5;entryY=1;entryDx=0;entryDy=0;exitX=0.5;exitY=0;exitDx=0;exitDy=0;" parent="1" source="dCw0XoR2P0re9Lg1B4J4-15" target="dCw0XoR2P0re9Lg1B4J4-3" edge="1">
          <mxGeometry width="50" height="50" relative="1" as="geometry">
            <mxPoint x="400" y="430" as="sourcePoint" />
            <mxPoint x="450" y="380" as="targetPoint" />
          </mxGeometry>
        </mxCell>
        <mxCell id="dCw0XoR2P0re9Lg1B4J4-23" value="" style="endArrow=none;html=1;rounded=0;entryX=0.5;entryY=0;entryDx=0;entryDy=0;" parent="1" target="dCw0XoR2P0re9Lg1B4J4-3" edge="1">
          <mxGeometry width="50" height="50" relative="1" as="geometry">
            <mxPoint x="450" y="250" as="sourcePoint" />
            <mxPoint x="450" y="380" as="targetPoint" />
          </mxGeometry>
        </mxCell>
        <mxCell id="dCw0XoR2P0re9Lg1B4J4-24" value="" style="endArrow=none;html=1;rounded=0;exitX=0.5;exitY=0;exitDx=0;exitDy=0;entryX=0.5;entryY=1;entryDx=0;entryDy=0;" parent="1" source="dCw0XoR2P0re9Lg1B4J4-17" target="dCw0XoR2P0re9Lg1B4J4-3" edge="1">
          <mxGeometry width="50" height="50" relative="1" as="geometry">
            <mxPoint x="400" y="430" as="sourcePoint" />
            <mxPoint x="450" y="380" as="targetPoint" />
          </mxGeometry>
        </mxCell>
        <mxCell id="dCw0XoR2P0re9Lg1B4J4-26" value="Tanév/félév" style="rhombus;whiteSpace=wrap;html=1;fillColor=#fff2cc;strokeColor=#d6b656;rounded=0;" parent="1" vertex="1">
          <mxGeometry x="580" y="300" width="80" height="80" as="geometry" />
        </mxCell>
        <mxCell id="dCw0XoR2P0re9Lg1B4J4-28" value="" style="endArrow=classic;html=1;rounded=0;entryX=0;entryY=0.5;entryDx=0;entryDy=0;exitX=1;exitY=0.5;exitDx=0;exitDy=0;" parent="1" source="dCw0XoR2P0re9Lg1B4J4-26" target="dCw0XoR2P0re9Lg1B4J4-5" edge="1">
          <mxGeometry width="50" height="50" relative="1" as="geometry">
            <mxPoint x="400" y="430" as="sourcePoint" />
            <mxPoint x="450" y="380" as="targetPoint" />
          </mxGeometry>
        </mxCell>
        <mxCell id="dCw0XoR2P0re9Lg1B4J4-29" value="" style="endArrow=classic;html=1;rounded=0;exitX=1;exitY=0.5;exitDx=0;exitDy=0;" parent="1" source="dCw0XoR2P0re9Lg1B4J4-26" edge="1">
          <mxGeometry width="50" height="50" relative="1" as="geometry">
            <mxPoint x="400" y="430" as="sourcePoint" />
            <mxPoint x="710" y="340" as="targetPoint" />
          </mxGeometry>
        </mxCell>
        <mxCell id="dCw0XoR2P0re9Lg1B4J4-30" value="" style="endArrow=classic;html=1;rounded=0;exitX=0;exitY=0.5;exitDx=0;exitDy=0;" parent="1" source="dCw0XoR2P0re9Lg1B4J4-26" edge="1">
          <mxGeometry width="50" height="50" relative="1" as="geometry">
            <mxPoint x="400" y="430" as="sourcePoint" />
            <mxPoint x="520" y="340" as="targetPoint" />
          </mxGeometry>
        </mxCell>
        <mxCell id="dCw0XoR2P0re9Lg1B4J4-31" value="" style="endArrow=classic;html=1;rounded=0;exitX=1;exitY=0.5;exitDx=0;exitDy=0;" parent="1" source="dCw0XoR2P0re9Lg1B4J4-6" edge="1">
          <mxGeometry width="50" height="50" relative="1" as="geometry">
            <mxPoint x="400" y="430" as="sourcePoint" />
            <mxPoint x="380" y="340" as="targetPoint" />
          </mxGeometry>
        </mxCell>
        <mxCell id="dCw0XoR2P0re9Lg1B4J4-32" value="&lt;u&gt;Neptunkód&lt;/u&gt;" style="ellipse;whiteSpace=wrap;html=1;fillColor=#ffe6cc;strokeColor=#d79b00;" parent="1" vertex="1">
          <mxGeometry x="620" y="180" width="100" height="70" as="geometry" />
        </mxCell>
        <mxCell id="dCw0XoR2P0re9Lg1B4J4-33" value="" style="endArrow=none;html=1;rounded=0;entryX=0.5;entryY=1;entryDx=0;entryDy=0;exitX=0.5;exitY=0;exitDx=0;exitDy=0;" parent="1" source="dCw0XoR2P0re9Lg1B4J4-5" target="dCw0XoR2P0re9Lg1B4J4-32" edge="1">
          <mxGeometry width="50" height="50" relative="1" as="geometry">
            <mxPoint x="400" y="430" as="sourcePoint" />
            <mxPoint x="450" y="380" as="targetPoint" />
          </mxGeometry>
        </mxCell>
        <mxCell id="dCw0XoR2P0re9Lg1B4J4-34" value="név" style="ellipse;whiteSpace=wrap;html=1;fillColor=#ffe6cc;strokeColor=#d79b00;" parent="1" vertex="1">
          <mxGeometry x="740" y="180" width="100" height="70" as="geometry" />
        </mxCell>
        <mxCell id="dCw0XoR2P0re9Lg1B4J4-35" value="kredit" style="ellipse;whiteSpace=wrap;html=1;fillColor=#ffe6cc;strokeColor=#d79b00;" parent="1" vertex="1">
          <mxGeometry x="860" y="180" width="100" height="70" as="geometry" />
        </mxCell>
        <mxCell id="dCw0XoR2P0re9Lg1B4J4-36" value="" style="endArrow=none;html=1;rounded=0;entryX=0.5;entryY=1;entryDx=0;entryDy=0;exitX=0.5;exitY=0;exitDx=0;exitDy=0;" parent="1" source="dCw0XoR2P0re9Lg1B4J4-5" target="dCw0XoR2P0re9Lg1B4J4-34" edge="1">
          <mxGeometry width="50" height="50" relative="1" as="geometry">
            <mxPoint x="790" y="320" as="sourcePoint" />
            <mxPoint x="680" y="260" as="targetPoint" />
          </mxGeometry>
        </mxCell>
        <mxCell id="dCw0XoR2P0re9Lg1B4J4-37" value="" style="endArrow=none;html=1;rounded=0;entryX=0.5;entryY=1;entryDx=0;entryDy=0;exitX=0.5;exitY=0;exitDx=0;exitDy=0;" parent="1" source="dCw0XoR2P0re9Lg1B4J4-5" target="dCw0XoR2P0re9Lg1B4J4-35" edge="1">
          <mxGeometry width="50" height="50" relative="1" as="geometry">
            <mxPoint x="800" y="330" as="sourcePoint" />
            <mxPoint x="690" y="270" as="targetPoint" />
          </mxGeometry>
        </mxCell>
        <mxCell id="dCw0XoR2P0re9Lg1B4J4-38" value="" style="endArrow=none;html=1;rounded=0;entryX=0.5;entryY=1;entryDx=0;entryDy=0;" parent="1" target="dCw0XoR2P0re9Lg1B4J4-5" edge="1">
          <mxGeometry width="50" height="50" relative="1" as="geometry">
            <mxPoint x="780" y="440" as="sourcePoint" />
            <mxPoint x="700" y="280" as="targetPoint" />
          </mxGeometry>
        </mxCell>
        <mxCell id="dCw0XoR2P0re9Lg1B4J4-39" value="lezárás módja" style="ellipse;whiteSpace=wrap;html=1;fillColor=#ffe6cc;strokeColor=#d79b00;" parent="1" vertex="1">
          <mxGeometry x="730" y="440" width="100" height="70" as="geometry" />
        </mxCell>
        <mxCell id="t9fxQRnXSA_CllDtHOeK-87" value="" style="shape=table;startSize=0;container=1;collapsible=0;childLayout=tableLayout;align=left;verticalAlign=middle;spacingLeft=4;spacingRight=4;fontFamily=Helvetica;fontSize=12;fontColor=default;fillColor=none;gradientColor=none;" vertex="1" parent="1">
          <mxGeometry x="300" y="620" width="230" height="170" as="geometry" />
        </mxCell>
        <mxCell id="t9fxQRnXSA_CllDtHOeK-88" value="" style="shape=tableRow;horizontal=0;startSize=0;swimlaneHead=0;swimlaneBody=0;strokeColor=inherit;top=0;left=0;bottom=0;right=0;collapsible=0;dropTarget=0;fillColor=none;points=[[0,0.5],[1,0.5]];portConstraint=eastwest;align=left;verticalAlign=middle;spacingLeft=4;spacingRight=4;fontFamily=Helvetica;fontSize=12;fontColor=default;" vertex="1" parent="t9fxQRnXSA_CllDtHOeK-87">
          <mxGeometry width="230" height="57" as="geometry" />
        </mxCell>
        <mxCell id="t9fxQRnXSA_CllDtHOeK-89" value="&lt;u&gt;Neptunkód, PK&lt;/u&gt;" style="shape=partialRectangle;html=1;whiteSpace=wrap;connectable=0;strokeColor=#d6b656;overflow=hidden;fillColor=#fff2cc;top=0;left=0;bottom=0;right=0;pointerEvents=1;align=left;verticalAlign=middle;spacingLeft=4;spacingRight=4;fontFamily=Helvetica;fontSize=12;" vertex="1" parent="t9fxQRnXSA_CllDtHOeK-88">
          <mxGeometry width="77" height="57" as="geometry">
            <mxRectangle width="77" height="57" as="alternateBounds" />
          </mxGeometry>
        </mxCell>
        <mxCell id="t9fxQRnXSA_CllDtHOeK-90" value="Név, NN" style="shape=partialRectangle;html=1;whiteSpace=wrap;connectable=0;strokeColor=#d6b656;overflow=hidden;fillColor=#fff2cc;top=0;left=0;bottom=0;right=0;pointerEvents=1;align=left;verticalAlign=middle;spacingLeft=4;spacingRight=4;fontFamily=Helvetica;fontSize=12;" vertex="1" parent="t9fxQRnXSA_CllDtHOeK-88">
          <mxGeometry x="77" width="76" height="57" as="geometry">
            <mxRectangle width="76" height="57" as="alternateBounds" />
          </mxGeometry>
        </mxCell>
        <mxCell id="t9fxQRnXSA_CllDtHOeK-91" value="Beosztás, CHAR_50" style="shape=partialRectangle;html=1;whiteSpace=wrap;connectable=0;strokeColor=#d6b656;overflow=hidden;fillColor=#fff2cc;top=0;left=0;bottom=0;right=0;pointerEvents=1;align=left;verticalAlign=middle;spacingLeft=4;spacingRight=4;fontFamily=Helvetica;fontSize=12;" vertex="1" parent="t9fxQRnXSA_CllDtHOeK-88">
          <mxGeometry x="153" width="77" height="57" as="geometry">
            <mxRectangle width="77" height="57" as="alternateBounds" />
          </mxGeometry>
        </mxCell>
        <mxCell id="t9fxQRnXSA_CllDtHOeK-92" value="" style="shape=tableRow;horizontal=0;startSize=0;swimlaneHead=0;swimlaneBody=0;strokeColor=inherit;top=0;left=0;bottom=0;right=0;collapsible=0;dropTarget=0;fillColor=none;points=[[0,0.5],[1,0.5]];portConstraint=eastwest;align=left;verticalAlign=middle;spacingLeft=4;spacingRight=4;fontFamily=Helvetica;fontSize=12;fontColor=default;" vertex="1" parent="t9fxQRnXSA_CllDtHOeK-87">
          <mxGeometry y="57" width="230" height="56" as="geometry" />
        </mxCell>
        <mxCell id="t9fxQRnXSA_CllDtHOeK-93" value="FFIGKH" style="shape=partialRectangle;html=1;whiteSpace=wrap;connectable=0;strokeColor=inherit;overflow=hidden;fillColor=none;top=0;left=0;bottom=0;right=0;pointerEvents=1;align=left;verticalAlign=middle;spacingLeft=4;spacingRight=4;fontFamily=Helvetica;fontSize=12;fontColor=default;" vertex="1" parent="t9fxQRnXSA_CllDtHOeK-92">
          <mxGeometry width="77" height="56" as="geometry">
            <mxRectangle width="77" height="56" as="alternateBounds" />
          </mxGeometry>
        </mxCell>
        <mxCell id="t9fxQRnXSA_CllDtHOeK-94" value="Tóth Lajos" style="shape=partialRectangle;html=1;whiteSpace=wrap;connectable=0;strokeColor=inherit;overflow=hidden;fillColor=none;top=0;left=0;bottom=0;right=0;pointerEvents=1;align=left;verticalAlign=middle;spacingLeft=4;spacingRight=4;fontFamily=Helvetica;fontSize=12;fontColor=default;" vertex="1" parent="t9fxQRnXSA_CllDtHOeK-92">
          <mxGeometry x="77" width="76" height="56" as="geometry">
            <mxRectangle width="76" height="56" as="alternateBounds" />
          </mxGeometry>
        </mxCell>
        <mxCell id="t9fxQRnXSA_CllDtHOeK-95" value="Statisztikai tanszék" style="shape=partialRectangle;html=1;whiteSpace=wrap;connectable=0;strokeColor=inherit;overflow=hidden;fillColor=none;top=0;left=0;bottom=0;right=0;pointerEvents=1;align=left;verticalAlign=middle;spacingLeft=4;spacingRight=4;fontFamily=Helvetica;fontSize=12;fontColor=default;" vertex="1" parent="t9fxQRnXSA_CllDtHOeK-92">
          <mxGeometry x="153" width="77" height="56" as="geometry">
            <mxRectangle width="77" height="56" as="alternateBounds" />
          </mxGeometry>
        </mxCell>
        <mxCell id="t9fxQRnXSA_CllDtHOeK-96" value="" style="shape=tableRow;horizontal=0;startSize=0;swimlaneHead=0;swimlaneBody=0;strokeColor=inherit;top=0;left=0;bottom=0;right=0;collapsible=0;dropTarget=0;fillColor=none;points=[[0,0.5],[1,0.5]];portConstraint=eastwest;align=left;verticalAlign=middle;spacingLeft=4;spacingRight=4;fontFamily=Helvetica;fontSize=12;fontColor=default;" vertex="1" parent="t9fxQRnXSA_CllDtHOeK-87">
          <mxGeometry y="113" width="230" height="57" as="geometry" />
        </mxCell>
        <mxCell id="t9fxQRnXSA_CllDtHOeK-97" value="HHGMKI" style="shape=partialRectangle;html=1;whiteSpace=wrap;connectable=0;strokeColor=inherit;overflow=hidden;fillColor=none;top=0;left=0;bottom=0;right=0;pointerEvents=1;align=left;verticalAlign=middle;spacingLeft=4;spacingRight=4;fontFamily=Helvetica;fontSize=12;fontColor=default;" vertex="1" parent="t9fxQRnXSA_CllDtHOeK-96">
          <mxGeometry width="77" height="57" as="geometry">
            <mxRectangle width="77" height="57" as="alternateBounds" />
          </mxGeometry>
        </mxCell>
        <mxCell id="t9fxQRnXSA_CllDtHOeK-98" value="Gáll Vilmos" style="shape=partialRectangle;html=1;whiteSpace=wrap;connectable=0;strokeColor=inherit;overflow=hidden;fillColor=none;top=0;left=0;bottom=0;right=0;pointerEvents=1;align=left;verticalAlign=middle;spacingLeft=4;spacingRight=4;fontFamily=Helvetica;fontSize=12;fontColor=default;" vertex="1" parent="t9fxQRnXSA_CllDtHOeK-96">
          <mxGeometry x="77" width="76" height="57" as="geometry">
            <mxRectangle width="76" height="57" as="alternateBounds" />
          </mxGeometry>
        </mxCell>
        <mxCell id="t9fxQRnXSA_CllDtHOeK-99" value="Matematikai tanszék" style="shape=partialRectangle;html=1;whiteSpace=wrap;connectable=0;strokeColor=inherit;overflow=hidden;fillColor=none;top=0;left=0;bottom=0;right=0;pointerEvents=1;align=left;verticalAlign=middle;spacingLeft=4;spacingRight=4;fontFamily=Helvetica;fontSize=12;fontColor=default;" vertex="1" parent="t9fxQRnXSA_CllDtHOeK-96">
          <mxGeometry x="153" width="77" height="57" as="geometry">
            <mxRectangle width="77" height="57" as="alternateBounds" />
          </mxGeometry>
        </mxCell>
        <mxCell id="t9fxQRnXSA_CllDtHOeK-100" value="&lt;font style=&quot;font-size: 18px;&quot;&gt;Oktató&lt;/font&gt;" style="rounded=0;whiteSpace=wrap;html=1;align=center;verticalAlign=middle;spacingLeft=4;spacingRight=4;fontFamily=Helvetica;fontSize=12;fillColor=#ffe6cc;strokeColor=#d79b00;" vertex="1" parent="1">
          <mxGeometry x="300" y="560" width="230" height="60" as="geometry" />
        </mxCell>
        <mxCell id="t9fxQRnXSA_CllDtHOeK-101" value="&lt;font style=&quot;font-size: 18px;&quot;&gt;Tantárgy&lt;/font&gt;" style="rounded=0;whiteSpace=wrap;html=1;align=center;verticalAlign=middle;spacingLeft=4;spacingRight=4;fontFamily=Helvetica;fontSize=12;fillColor=#ffe6cc;strokeColor=#d79b00;" vertex="1" parent="1">
          <mxGeometry x="660" y="560" width="300" height="60" as="geometry" />
        </mxCell>
        <mxCell id="t9fxQRnXSA_CllDtHOeK-115" value="" style="shape=table;startSize=0;container=1;collapsible=0;childLayout=tableLayout;align=left;verticalAlign=middle;spacingLeft=4;spacingRight=4;fontFamily=Helvetica;fontSize=12;fontColor=default;fillColor=none;gradientColor=none;" vertex="1" parent="1">
          <mxGeometry x="660" y="620" width="300" height="170" as="geometry" />
        </mxCell>
        <mxCell id="t9fxQRnXSA_CllDtHOeK-116" value="" style="shape=tableRow;horizontal=0;startSize=0;swimlaneHead=0;swimlaneBody=0;strokeColor=inherit;top=0;left=0;bottom=0;right=0;collapsible=0;dropTarget=0;fillColor=none;points=[[0,0.5],[1,0.5]];portConstraint=eastwest;align=left;verticalAlign=middle;spacingLeft=4;spacingRight=4;fontFamily=Helvetica;fontSize=12;fontColor=default;" vertex="1" parent="t9fxQRnXSA_CllDtHOeK-115">
          <mxGeometry width="300" height="57" as="geometry" />
        </mxCell>
        <mxCell id="t9fxQRnXSA_CllDtHOeK-117" value="&lt;u&gt;Neptunkód, PK&lt;/u&gt;" style="shape=partialRectangle;html=1;whiteSpace=wrap;connectable=0;strokeColor=#d6b656;overflow=hidden;fillColor=#fff2cc;top=0;left=0;bottom=0;right=0;pointerEvents=1;align=left;verticalAlign=middle;spacingLeft=4;spacingRight=4;fontFamily=Helvetica;fontSize=12;" vertex="1" parent="t9fxQRnXSA_CllDtHOeK-116">
          <mxGeometry width="76" height="57" as="geometry">
            <mxRectangle width="76" height="57" as="alternateBounds" />
          </mxGeometry>
        </mxCell>
        <mxCell id="t9fxQRnXSA_CllDtHOeK-118" value="Név, NN" style="shape=partialRectangle;html=1;whiteSpace=wrap;connectable=0;strokeColor=#d6b656;overflow=hidden;fillColor=#fff2cc;top=0;left=0;bottom=0;right=0;pointerEvents=1;align=left;verticalAlign=middle;spacingLeft=4;spacingRight=4;fontFamily=Helvetica;fontSize=12;" vertex="1" parent="t9fxQRnXSA_CllDtHOeK-116">
          <mxGeometry x="76" width="74" height="57" as="geometry">
            <mxRectangle width="74" height="57" as="alternateBounds" />
          </mxGeometry>
        </mxCell>
        <mxCell id="t9fxQRnXSA_CllDtHOeK-119" value="Kredit, INT" style="shape=partialRectangle;html=1;whiteSpace=wrap;connectable=0;strokeColor=#d6b656;overflow=hidden;fillColor=#fff2cc;top=0;left=0;bottom=0;right=0;pointerEvents=1;align=left;verticalAlign=middle;spacingLeft=4;spacingRight=4;fontFamily=Helvetica;fontSize=12;" vertex="1" parent="t9fxQRnXSA_CllDtHOeK-116">
          <mxGeometry x="150" width="76" height="57" as="geometry">
            <mxRectangle width="76" height="57" as="alternateBounds" />
          </mxGeometry>
        </mxCell>
        <mxCell id="t9fxQRnXSA_CllDtHOeK-120" value="Lezárás módja, CHAR_20" style="shape=partialRectangle;html=1;whiteSpace=wrap;connectable=0;strokeColor=#d6b656;overflow=hidden;fillColor=#fff2cc;top=0;left=0;bottom=0;right=0;pointerEvents=1;align=left;verticalAlign=middle;spacingLeft=4;spacingRight=4;fontFamily=Helvetica;fontSize=12;" vertex="1" parent="t9fxQRnXSA_CllDtHOeK-116">
          <mxGeometry x="226" width="74" height="57" as="geometry">
            <mxRectangle width="74" height="57" as="alternateBounds" />
          </mxGeometry>
        </mxCell>
        <mxCell id="t9fxQRnXSA_CllDtHOeK-121" value="" style="shape=tableRow;horizontal=0;startSize=0;swimlaneHead=0;swimlaneBody=0;strokeColor=inherit;top=0;left=0;bottom=0;right=0;collapsible=0;dropTarget=0;fillColor=none;points=[[0,0.5],[1,0.5]];portConstraint=eastwest;align=left;verticalAlign=middle;spacingLeft=4;spacingRight=4;fontFamily=Helvetica;fontSize=12;fontColor=default;" vertex="1" parent="t9fxQRnXSA_CllDtHOeK-115">
          <mxGeometry y="57" width="300" height="56" as="geometry" />
        </mxCell>
        <mxCell id="t9fxQRnXSA_CllDtHOeK-122" value="LKDIOD" style="shape=partialRectangle;html=1;whiteSpace=wrap;connectable=0;strokeColor=inherit;overflow=hidden;fillColor=none;top=0;left=0;bottom=0;right=0;pointerEvents=1;align=left;verticalAlign=middle;spacingLeft=4;spacingRight=4;fontFamily=Helvetica;fontSize=12;fontColor=default;" vertex="1" parent="t9fxQRnXSA_CllDtHOeK-121">
          <mxGeometry width="76" height="56" as="geometry">
            <mxRectangle width="76" height="56" as="alternateBounds" />
          </mxGeometry>
        </mxCell>
        <mxCell id="t9fxQRnXSA_CllDtHOeK-123" value="Statisztika" style="shape=partialRectangle;html=1;whiteSpace=wrap;connectable=0;strokeColor=inherit;overflow=hidden;fillColor=none;top=0;left=0;bottom=0;right=0;pointerEvents=1;align=left;verticalAlign=middle;spacingLeft=4;spacingRight=4;fontFamily=Helvetica;fontSize=12;fontColor=default;" vertex="1" parent="t9fxQRnXSA_CllDtHOeK-121">
          <mxGeometry x="76" width="74" height="56" as="geometry">
            <mxRectangle width="74" height="56" as="alternateBounds" />
          </mxGeometry>
        </mxCell>
        <mxCell id="t9fxQRnXSA_CllDtHOeK-124" value="5" style="shape=partialRectangle;html=1;whiteSpace=wrap;connectable=0;strokeColor=inherit;overflow=hidden;fillColor=none;top=0;left=0;bottom=0;right=0;pointerEvents=1;align=left;verticalAlign=middle;spacingLeft=4;spacingRight=4;fontFamily=Helvetica;fontSize=12;fontColor=default;" vertex="1" parent="t9fxQRnXSA_CllDtHOeK-121">
          <mxGeometry x="150" width="76" height="56" as="geometry">
            <mxRectangle width="76" height="56" as="alternateBounds" />
          </mxGeometry>
        </mxCell>
        <mxCell id="t9fxQRnXSA_CllDtHOeK-125" value="Kollokvium" style="shape=partialRectangle;html=1;whiteSpace=wrap;connectable=0;strokeColor=inherit;overflow=hidden;fillColor=none;top=0;left=0;bottom=0;right=0;pointerEvents=1;align=left;verticalAlign=middle;spacingLeft=4;spacingRight=4;fontFamily=Helvetica;fontSize=12;fontColor=default;" vertex="1" parent="t9fxQRnXSA_CllDtHOeK-121">
          <mxGeometry x="226" width="74" height="56" as="geometry">
            <mxRectangle width="74" height="56" as="alternateBounds" />
          </mxGeometry>
        </mxCell>
        <mxCell id="t9fxQRnXSA_CllDtHOeK-126" value="" style="shape=tableRow;horizontal=0;startSize=0;swimlaneHead=0;swimlaneBody=0;strokeColor=inherit;top=0;left=0;bottom=0;right=0;collapsible=0;dropTarget=0;fillColor=none;points=[[0,0.5],[1,0.5]];portConstraint=eastwest;align=left;verticalAlign=middle;spacingLeft=4;spacingRight=4;fontFamily=Helvetica;fontSize=12;fontColor=default;" vertex="1" parent="t9fxQRnXSA_CllDtHOeK-115">
          <mxGeometry y="113" width="300" height="57" as="geometry" />
        </mxCell>
        <mxCell id="t9fxQRnXSA_CllDtHOeK-127" value="FJIOFJ" style="shape=partialRectangle;html=1;whiteSpace=wrap;connectable=0;strokeColor=inherit;overflow=hidden;fillColor=none;top=0;left=0;bottom=0;right=0;pointerEvents=1;align=left;verticalAlign=middle;spacingLeft=4;spacingRight=4;fontFamily=Helvetica;fontSize=12;fontColor=default;" vertex="1" parent="t9fxQRnXSA_CllDtHOeK-126">
          <mxGeometry width="76" height="57" as="geometry">
            <mxRectangle width="76" height="57" as="alternateBounds" />
          </mxGeometry>
        </mxCell>
        <mxCell id="t9fxQRnXSA_CllDtHOeK-128" value="Algebra" style="shape=partialRectangle;html=1;whiteSpace=wrap;connectable=0;strokeColor=inherit;overflow=hidden;fillColor=none;top=0;left=0;bottom=0;right=0;pointerEvents=1;align=left;verticalAlign=middle;spacingLeft=4;spacingRight=4;fontFamily=Helvetica;fontSize=12;fontColor=default;" vertex="1" parent="t9fxQRnXSA_CllDtHOeK-126">
          <mxGeometry x="76" width="74" height="57" as="geometry">
            <mxRectangle width="74" height="57" as="alternateBounds" />
          </mxGeometry>
        </mxCell>
        <mxCell id="t9fxQRnXSA_CllDtHOeK-129" value="5" style="shape=partialRectangle;html=1;whiteSpace=wrap;connectable=0;strokeColor=inherit;overflow=hidden;fillColor=none;top=0;left=0;bottom=0;right=0;pointerEvents=1;align=left;verticalAlign=middle;spacingLeft=4;spacingRight=4;fontFamily=Helvetica;fontSize=12;fontColor=default;" vertex="1" parent="t9fxQRnXSA_CllDtHOeK-126">
          <mxGeometry x="150" width="76" height="57" as="geometry">
            <mxRectangle width="76" height="57" as="alternateBounds" />
          </mxGeometry>
        </mxCell>
        <mxCell id="t9fxQRnXSA_CllDtHOeK-130" value="gyakorlati jegy" style="shape=partialRectangle;html=1;whiteSpace=wrap;connectable=0;strokeColor=inherit;overflow=hidden;fillColor=none;top=0;left=0;bottom=0;right=0;pointerEvents=1;align=left;verticalAlign=middle;spacingLeft=4;spacingRight=4;fontFamily=Helvetica;fontSize=12;fontColor=default;" vertex="1" parent="t9fxQRnXSA_CllDtHOeK-126">
          <mxGeometry x="226" width="74" height="57" as="geometry">
            <mxRectangle width="74" height="57" as="alternateBounds" />
          </mxGeometry>
        </mxCell>
        <mxCell id="t9fxQRnXSA_CllDtHOeK-131" value="&lt;font style=&quot;font-size: 18px;&quot;&gt;Tanszék&lt;/font&gt;" style="rounded=0;whiteSpace=wrap;html=1;align=center;verticalAlign=middle;spacingLeft=4;spacingRight=4;fontFamily=Helvetica;fontSize=12;fillColor=#ffe6cc;strokeColor=#d79b00;" vertex="1" parent="1">
          <mxGeometry x="-100" y="560" width="230" height="60" as="geometry" />
        </mxCell>
        <mxCell id="t9fxQRnXSA_CllDtHOeK-132" value="" style="shape=table;startSize=0;container=1;collapsible=0;childLayout=tableLayout;align=left;verticalAlign=middle;spacingLeft=4;spacingRight=4;fontFamily=Helvetica;fontSize=12;fontColor=default;fillColor=none;gradientColor=none;" vertex="1" parent="1">
          <mxGeometry x="-100" y="620" width="230" height="170" as="geometry" />
        </mxCell>
        <mxCell id="t9fxQRnXSA_CllDtHOeK-133" value="" style="shape=tableRow;horizontal=0;startSize=0;swimlaneHead=0;swimlaneBody=0;strokeColor=inherit;top=0;left=0;bottom=0;right=0;collapsible=0;dropTarget=0;fillColor=none;points=[[0,0.5],[1,0.5]];portConstraint=eastwest;align=left;verticalAlign=middle;spacingLeft=4;spacingRight=4;fontFamily=Helvetica;fontSize=12;fontColor=default;" vertex="1" parent="t9fxQRnXSA_CllDtHOeK-132">
          <mxGeometry width="230" height="57" as="geometry" />
        </mxCell>
        <mxCell id="t9fxQRnXSA_CllDtHOeK-134" value="kód, PK" style="shape=partialRectangle;html=1;whiteSpace=wrap;connectable=0;strokeColor=#d6b656;overflow=hidden;fillColor=#fff2cc;top=0;left=0;bottom=0;right=0;pointerEvents=1;align=left;verticalAlign=middle;spacingLeft=4;spacingRight=4;fontFamily=Helvetica;fontSize=12;" vertex="1" parent="t9fxQRnXSA_CllDtHOeK-133">
          <mxGeometry width="77" height="57" as="geometry">
            <mxRectangle width="77" height="57" as="alternateBounds" />
          </mxGeometry>
        </mxCell>
        <mxCell id="t9fxQRnXSA_CllDtHOeK-135" value="Név, NN" style="shape=partialRectangle;html=1;whiteSpace=wrap;connectable=0;strokeColor=#d6b656;overflow=hidden;fillColor=#fff2cc;top=0;left=0;bottom=0;right=0;pointerEvents=1;align=left;verticalAlign=middle;spacingLeft=4;spacingRight=4;fontFamily=Helvetica;fontSize=12;" vertex="1" parent="t9fxQRnXSA_CllDtHOeK-133">
          <mxGeometry x="77" width="76" height="57" as="geometry">
            <mxRectangle width="76" height="57" as="alternateBounds" />
          </mxGeometry>
        </mxCell>
        <mxCell id="t9fxQRnXSA_CllDtHOeK-136" value="Kar, CHAR_4" style="shape=partialRectangle;html=1;whiteSpace=wrap;connectable=0;strokeColor=#d6b656;overflow=hidden;fillColor=#fff2cc;top=0;left=0;bottom=0;right=0;pointerEvents=1;align=left;verticalAlign=middle;spacingLeft=4;spacingRight=4;fontFamily=Helvetica;fontSize=12;" vertex="1" parent="t9fxQRnXSA_CllDtHOeK-133">
          <mxGeometry x="153" width="77" height="57" as="geometry">
            <mxRectangle width="77" height="57" as="alternateBounds" />
          </mxGeometry>
        </mxCell>
        <mxCell id="t9fxQRnXSA_CllDtHOeK-137" value="" style="shape=tableRow;horizontal=0;startSize=0;swimlaneHead=0;swimlaneBody=0;strokeColor=inherit;top=0;left=0;bottom=0;right=0;collapsible=0;dropTarget=0;fillColor=none;points=[[0,0.5],[1,0.5]];portConstraint=eastwest;align=left;verticalAlign=middle;spacingLeft=4;spacingRight=4;fontFamily=Helvetica;fontSize=12;fontColor=default;" vertex="1" parent="t9fxQRnXSA_CllDtHOeK-132">
          <mxGeometry y="57" width="230" height="56" as="geometry" />
        </mxCell>
        <mxCell id="t9fxQRnXSA_CllDtHOeK-138" value="ST" style="shape=partialRectangle;html=1;whiteSpace=wrap;connectable=0;strokeColor=inherit;overflow=hidden;fillColor=none;top=0;left=0;bottom=0;right=0;pointerEvents=1;align=left;verticalAlign=middle;spacingLeft=4;spacingRight=4;fontFamily=Helvetica;fontSize=12;fontColor=default;" vertex="1" parent="t9fxQRnXSA_CllDtHOeK-137">
          <mxGeometry width="77" height="56" as="geometry">
            <mxRectangle width="77" height="56" as="alternateBounds" />
          </mxGeometry>
        </mxCell>
        <mxCell id="t9fxQRnXSA_CllDtHOeK-139" value="Statisztikai" style="shape=partialRectangle;html=1;whiteSpace=wrap;connectable=0;strokeColor=inherit;overflow=hidden;fillColor=none;top=0;left=0;bottom=0;right=0;pointerEvents=1;align=left;verticalAlign=middle;spacingLeft=4;spacingRight=4;fontFamily=Helvetica;fontSize=12;fontColor=default;" vertex="1" parent="t9fxQRnXSA_CllDtHOeK-137">
          <mxGeometry x="77" width="76" height="56" as="geometry">
            <mxRectangle width="76" height="56" as="alternateBounds" />
          </mxGeometry>
        </mxCell>
        <mxCell id="t9fxQRnXSA_CllDtHOeK-140" value="GTK" style="shape=partialRectangle;html=1;whiteSpace=wrap;connectable=0;strokeColor=inherit;overflow=hidden;fillColor=none;top=0;left=0;bottom=0;right=0;pointerEvents=1;align=left;verticalAlign=middle;spacingLeft=4;spacingRight=4;fontFamily=Helvetica;fontSize=12;fontColor=default;" vertex="1" parent="t9fxQRnXSA_CllDtHOeK-137">
          <mxGeometry x="153" width="77" height="56" as="geometry">
            <mxRectangle width="77" height="56" as="alternateBounds" />
          </mxGeometry>
        </mxCell>
        <mxCell id="t9fxQRnXSA_CllDtHOeK-141" value="" style="shape=tableRow;horizontal=0;startSize=0;swimlaneHead=0;swimlaneBody=0;strokeColor=inherit;top=0;left=0;bottom=0;right=0;collapsible=0;dropTarget=0;fillColor=none;points=[[0,0.5],[1,0.5]];portConstraint=eastwest;align=left;verticalAlign=middle;spacingLeft=4;spacingRight=4;fontFamily=Helvetica;fontSize=12;fontColor=default;" vertex="1" parent="t9fxQRnXSA_CllDtHOeK-132">
          <mxGeometry y="113" width="230" height="57" as="geometry" />
        </mxCell>
        <mxCell id="t9fxQRnXSA_CllDtHOeK-142" value="MA" style="shape=partialRectangle;html=1;whiteSpace=wrap;connectable=0;strokeColor=inherit;overflow=hidden;fillColor=none;top=0;left=0;bottom=0;right=0;pointerEvents=1;align=left;verticalAlign=middle;spacingLeft=4;spacingRight=4;fontFamily=Helvetica;fontSize=12;fontColor=default;" vertex="1" parent="t9fxQRnXSA_CllDtHOeK-141">
          <mxGeometry width="77" height="57" as="geometry">
            <mxRectangle width="77" height="57" as="alternateBounds" />
          </mxGeometry>
        </mxCell>
        <mxCell id="t9fxQRnXSA_CllDtHOeK-143" value="Matematikai" style="shape=partialRectangle;html=1;whiteSpace=wrap;connectable=0;strokeColor=inherit;overflow=hidden;fillColor=none;top=0;left=0;bottom=0;right=0;pointerEvents=1;align=left;verticalAlign=middle;spacingLeft=4;spacingRight=4;fontFamily=Helvetica;fontSize=12;fontColor=default;" vertex="1" parent="t9fxQRnXSA_CllDtHOeK-141">
          <mxGeometry x="77" width="76" height="57" as="geometry">
            <mxRectangle width="76" height="57" as="alternateBounds" />
          </mxGeometry>
        </mxCell>
        <mxCell id="t9fxQRnXSA_CllDtHOeK-144" value="GÉIK" style="shape=partialRectangle;html=1;whiteSpace=wrap;connectable=0;strokeColor=inherit;overflow=hidden;fillColor=none;top=0;left=0;bottom=0;right=0;pointerEvents=1;align=left;verticalAlign=middle;spacingLeft=4;spacingRight=4;fontFamily=Helvetica;fontSize=12;fontColor=default;" vertex="1" parent="t9fxQRnXSA_CllDtHOeK-141">
          <mxGeometry x="153" width="77" height="57" as="geometry">
            <mxRectangle width="77" height="57" as="alternateBounds" />
          </mxGeometry>
        </mxCell>
        <mxCell id="t9fxQRnXSA_CllDtHOeK-145" value="&lt;span style=&quot;font-size: 18px;&quot;&gt;tanév/félév&lt;/span&gt;" style="rounded=0;whiteSpace=wrap;html=1;align=center;verticalAlign=middle;spacingLeft=4;spacingRight=4;fontFamily=Helvetica;fontSize=12;fillColor=#ffe6cc;strokeColor=#d79b00;" vertex="1" parent="1">
          <mxGeometry x="490" y="860" width="230" height="60" as="geometry" />
        </mxCell>
        <mxCell id="t9fxQRnXSA_CllDtHOeK-162" value="" style="shape=table;startSize=0;container=1;collapsible=0;childLayout=tableLayout;align=left;verticalAlign=middle;spacingLeft=4;spacingRight=4;fontFamily=Helvetica;fontSize=12;fontColor=default;fillColor=none;gradientColor=none;" vertex="1" parent="1">
          <mxGeometry x="490" y="920" width="230" height="170" as="geometry" />
        </mxCell>
        <mxCell id="t9fxQRnXSA_CllDtHOeK-163" value="" style="shape=tableRow;horizontal=0;startSize=0;swimlaneHead=0;swimlaneBody=0;strokeColor=inherit;top=0;left=0;bottom=0;right=0;collapsible=0;dropTarget=0;fillColor=none;points=[[0,0.5],[1,0.5]];portConstraint=eastwest;align=left;verticalAlign=middle;spacingLeft=4;spacingRight=4;fontFamily=Helvetica;fontSize=12;fontColor=default;" vertex="1" parent="t9fxQRnXSA_CllDtHOeK-162">
          <mxGeometry width="230" height="57" as="geometry" />
        </mxCell>
        <mxCell id="t9fxQRnXSA_CllDtHOeK-164" value="Oktatókód, FK" style="shape=partialRectangle;html=1;whiteSpace=wrap;connectable=0;strokeColor=#d6b656;overflow=hidden;fillColor=#fff2cc;top=0;left=0;bottom=0;right=0;pointerEvents=1;align=left;verticalAlign=middle;spacingLeft=4;spacingRight=4;fontFamily=Helvetica;fontSize=12;" vertex="1" parent="t9fxQRnXSA_CllDtHOeK-163">
          <mxGeometry width="77" height="57" as="geometry">
            <mxRectangle width="77" height="57" as="alternateBounds" />
          </mxGeometry>
        </mxCell>
        <mxCell id="t9fxQRnXSA_CllDtHOeK-165" value="Tárgykód, FK" style="shape=partialRectangle;html=1;whiteSpace=wrap;connectable=0;strokeColor=#d6b656;overflow=hidden;fillColor=#fff2cc;top=0;left=0;bottom=0;right=0;pointerEvents=1;align=left;verticalAlign=middle;spacingLeft=4;spacingRight=4;fontFamily=Helvetica;fontSize=12;" vertex="1" parent="t9fxQRnXSA_CllDtHOeK-163">
          <mxGeometry x="77" width="76" height="57" as="geometry">
            <mxRectangle width="76" height="57" as="alternateBounds" />
          </mxGeometry>
        </mxCell>
        <mxCell id="t9fxQRnXSA_CllDtHOeK-166" value="Félév, INT" style="shape=partialRectangle;html=1;whiteSpace=wrap;connectable=0;strokeColor=#d6b656;overflow=hidden;fillColor=#fff2cc;top=0;left=0;bottom=0;right=0;pointerEvents=1;align=left;verticalAlign=middle;spacingLeft=4;spacingRight=4;fontFamily=Helvetica;fontSize=12;" vertex="1" parent="t9fxQRnXSA_CllDtHOeK-163">
          <mxGeometry x="153" width="77" height="57" as="geometry">
            <mxRectangle width="77" height="57" as="alternateBounds" />
          </mxGeometry>
        </mxCell>
        <mxCell id="t9fxQRnXSA_CllDtHOeK-167" value="" style="shape=tableRow;horizontal=0;startSize=0;swimlaneHead=0;swimlaneBody=0;strokeColor=inherit;top=0;left=0;bottom=0;right=0;collapsible=0;dropTarget=0;fillColor=none;points=[[0,0.5],[1,0.5]];portConstraint=eastwest;align=left;verticalAlign=middle;spacingLeft=4;spacingRight=4;fontFamily=Helvetica;fontSize=12;fontColor=default;" vertex="1" parent="t9fxQRnXSA_CllDtHOeK-162">
          <mxGeometry y="57" width="230" height="56" as="geometry" />
        </mxCell>
        <mxCell id="t9fxQRnXSA_CllDtHOeK-168" value="FFIGKH" style="shape=partialRectangle;html=1;whiteSpace=wrap;connectable=0;strokeColor=inherit;overflow=hidden;fillColor=none;top=0;left=0;bottom=0;right=0;pointerEvents=1;align=left;verticalAlign=middle;spacingLeft=4;spacingRight=4;fontFamily=Helvetica;fontSize=12;fontColor=default;" vertex="1" parent="t9fxQRnXSA_CllDtHOeK-167">
          <mxGeometry width="77" height="56" as="geometry">
            <mxRectangle width="77" height="56" as="alternateBounds" />
          </mxGeometry>
        </mxCell>
        <mxCell id="t9fxQRnXSA_CllDtHOeK-169" value="&#xa;&lt;span style=&quot;color: rgb(0, 0, 0); font-family: Helvetica; font-size: 12px; font-style: normal; font-variant-ligatures: normal; font-variant-caps: normal; font-weight: 400; letter-spacing: normal; orphans: 2; text-align: left; text-indent: 0px; text-transform: none; widows: 2; word-spacing: 0px; -webkit-text-stroke-width: 0px; white-space: normal; background-color: rgb(251, 251, 251); text-decoration-thickness: initial; text-decoration-style: initial; text-decoration-color: initial; display: inline !important; float: none;&quot;&gt;LKDIOD&lt;/span&gt;&#xa;&#xa;" style="shape=partialRectangle;html=1;whiteSpace=wrap;connectable=0;strokeColor=inherit;overflow=hidden;fillColor=none;top=0;left=0;bottom=0;right=0;pointerEvents=1;align=left;verticalAlign=middle;spacingLeft=4;spacingRight=4;fontFamily=Helvetica;fontSize=12;fontColor=default;" vertex="1" parent="t9fxQRnXSA_CllDtHOeK-167">
          <mxGeometry x="77" width="76" height="56" as="geometry">
            <mxRectangle width="76" height="56" as="alternateBounds" />
          </mxGeometry>
        </mxCell>
        <mxCell id="t9fxQRnXSA_CllDtHOeK-170" value="1." style="shape=partialRectangle;html=1;whiteSpace=wrap;connectable=0;strokeColor=inherit;overflow=hidden;fillColor=none;top=0;left=0;bottom=0;right=0;pointerEvents=1;align=left;verticalAlign=middle;spacingLeft=4;spacingRight=4;fontFamily=Helvetica;fontSize=12;fontColor=default;" vertex="1" parent="t9fxQRnXSA_CllDtHOeK-167">
          <mxGeometry x="153" width="77" height="56" as="geometry">
            <mxRectangle width="77" height="56" as="alternateBounds" />
          </mxGeometry>
        </mxCell>
        <mxCell id="t9fxQRnXSA_CllDtHOeK-171" value="" style="shape=tableRow;horizontal=0;startSize=0;swimlaneHead=0;swimlaneBody=0;strokeColor=inherit;top=0;left=0;bottom=0;right=0;collapsible=0;dropTarget=0;fillColor=none;points=[[0,0.5],[1,0.5]];portConstraint=eastwest;align=left;verticalAlign=middle;spacingLeft=4;spacingRight=4;fontFamily=Helvetica;fontSize=12;fontColor=default;" vertex="1" parent="t9fxQRnXSA_CllDtHOeK-162">
          <mxGeometry y="113" width="230" height="57" as="geometry" />
        </mxCell>
        <mxCell id="t9fxQRnXSA_CllDtHOeK-172" value="HHGMKI" style="shape=partialRectangle;html=1;whiteSpace=wrap;connectable=0;strokeColor=inherit;overflow=hidden;fillColor=none;top=0;left=0;bottom=0;right=0;pointerEvents=1;align=left;verticalAlign=middle;spacingLeft=4;spacingRight=4;fontFamily=Helvetica;fontSize=12;fontColor=default;" vertex="1" parent="t9fxQRnXSA_CllDtHOeK-171">
          <mxGeometry width="77" height="57" as="geometry">
            <mxRectangle width="77" height="57" as="alternateBounds" />
          </mxGeometry>
        </mxCell>
        <mxCell id="t9fxQRnXSA_CllDtHOeK-173" value="FJIOFJ" style="shape=partialRectangle;html=1;whiteSpace=wrap;connectable=0;strokeColor=inherit;overflow=hidden;fillColor=none;top=0;left=0;bottom=0;right=0;pointerEvents=1;align=left;verticalAlign=middle;spacingLeft=4;spacingRight=4;fontFamily=Helvetica;fontSize=12;fontColor=default;" vertex="1" parent="t9fxQRnXSA_CllDtHOeK-171">
          <mxGeometry x="77" width="76" height="57" as="geometry">
            <mxRectangle width="76" height="57" as="alternateBounds" />
          </mxGeometry>
        </mxCell>
        <mxCell id="t9fxQRnXSA_CllDtHOeK-174" value="2." style="shape=partialRectangle;html=1;whiteSpace=wrap;connectable=0;strokeColor=inherit;overflow=hidden;fillColor=none;top=0;left=0;bottom=0;right=0;pointerEvents=1;align=left;verticalAlign=middle;spacingLeft=4;spacingRight=4;fontFamily=Helvetica;fontSize=12;fontColor=default;" vertex="1" parent="t9fxQRnXSA_CllDtHOeK-171">
          <mxGeometry x="153" width="77" height="57" as="geometry">
            <mxRectangle width="77" height="57" as="alternateBounds" />
          </mxGeometry>
        </mxCell>
        <mxCell id="t9fxQRnXSA_CllDtHOeK-178" value="" style="endArrow=classic;html=1;rounded=0;fontFamily=Helvetica;fontSize=12;fontColor=default;entryX=1.017;entryY=0.196;entryDx=0;entryDy=0;entryPerimeter=0;exitX=-0.013;exitY=0.232;exitDx=0;exitDy=0;exitPerimeter=0;" edge="1" parent="1" source="t9fxQRnXSA_CllDtHOeK-92" target="t9fxQRnXSA_CllDtHOeK-137">
          <mxGeometry width="50" height="50" relative="1" as="geometry">
            <mxPoint x="320" y="720" as="sourcePoint" />
            <mxPoint x="370" y="670" as="targetPoint" />
          </mxGeometry>
        </mxCell>
        <mxCell id="t9fxQRnXSA_CllDtHOeK-179" value="" style="endArrow=classic;html=1;rounded=0;fontFamily=Helvetica;fontSize=12;fontColor=default;entryX=0.503;entryY=1.053;entryDx=0;entryDy=0;entryPerimeter=0;" edge="1" parent="1" target="t9fxQRnXSA_CllDtHOeK-126">
          <mxGeometry width="50" height="50" relative="1" as="geometry">
            <mxPoint x="610" y="860" as="sourcePoint" />
            <mxPoint x="640" y="820" as="targetPoint" />
          </mxGeometry>
        </mxCell>
        <mxCell id="t9fxQRnXSA_CllDtHOeK-180" value="" style="endArrow=classic;html=1;rounded=0;fontFamily=Helvetica;fontSize=12;fontColor=default;exitX=0.522;exitY=0;exitDx=0;exitDy=0;exitPerimeter=0;entryX=0.539;entryY=1.035;entryDx=0;entryDy=0;entryPerimeter=0;" edge="1" parent="1" source="t9fxQRnXSA_CllDtHOeK-145" target="t9fxQRnXSA_CllDtHOeK-96">
          <mxGeometry width="50" height="50" relative="1" as="geometry">
            <mxPoint x="607" y="866" as="sourcePoint" />
            <mxPoint x="821" y="803" as="targetPoint" />
          </mxGeometry>
        </mxCell>
      </root>
    </mxGraphModel>
  </diagram>
</mxfile>
